<svg id="Layer_1" enable-background="new 0 0 496 496" height="512" viewBox="0 0 496 496" width="512" xmlns="http://www.w3.org/2000/svg"><path d="m424 40v416c0 13.25-10.75 24-24 24h-304c-13.25 0-24-10.75-24-24v-416c0-13.25 10.75-24 24-24h304c13.25 0 24 10.75 24 24z" fill="#e8f8fc"/><path d="m311.88 194.88c3.03 6.69 6.32 15.46 8.52 25.75 2.37 2.03 36.59 31.45 37.59 32.31 1.48 1.27.37 3.71-1.57 3.49-31.95-3.51-25.29-2.78-33.71-3.71-.96 12.96-4.16 25.42-9.69 37.51 8.301 9.236 11.095 18.082 11.89 32.37.788 9.688.432 19.646-.91 29.17-60.897.13-81.252.693-96.25-3.03-24.038-5.737-83.265-31.478-101.4-87.23-10.78-33.13-9.76-84.03 15.32-98.75 7.52-4.41 18.89-6.57 28.36-2.02 12.27 5.91 19.34 22.09 17.36 40.93 1.899.651 15.891-59.043 77.34-110.32-4.78-13.35 5.13-27.35 19.23-27.35 11.14 0 20.2 8.92 20.43 20 20.63 0 66.8 17.02 71.52 43 2.72 15.03-8.69 45.71-59.09 57.8-4.44 1.07-6.81 5.9-4.94 10.08z" fill="#c79a83"/><path d="m322.714 252.722c-1.765 23.703-10.108 36.969-9.574 37.641-14.264-14.929-39.565-17.397-56.251-.711-5.038 5.038-13.51 2.55-15.24-4.09-8.57-37.664 10.239-62.445 10.239-62.737 2.89-4.756 9.562-5.843 13.837-1.995l27.239 24.496c6.523 5.866 11.621 5.409 29.75 7.396z" fill="#b38571"/><path d="m311.905 194.926c2.997 6.654 6.253 15.339 8.459 25.53-9.424-8.097-9.904-8.221-10.986-10.421l-11.39-23.354c-1.624-3.331.288-7.329 3.912-8.101 12.566-2.679 24.901-6.674 36.778-11.955 5.752-2.557 9.9 5.851 4.306 8.739-8.296 4.283-17.322 7.416-26.04 9.46-4.493 1.054-6.934 5.894-5.039 10.102z" fill="#b38571"/><g fill="#e0b7a3"><path d="m283.408 71.815c-8.363 5.177-12.507 16.225-7.941 25.989 1.093 2.337-1.632 4.568-3.722 3.005-14.022-10.489-9.416-33.189 8.689-36.479 4.403-.801 6.779 5.129 2.974 7.485z"/><path d="m273.386 101.313c-52.602 49.985-78.869 119.91-85.81 161.709-1.687 10.16-16.887 8.179-15.773-2.06 2.192-20.149 8.417-40.945 15.616-59.28 17.277-43.974 40.339-79.486 77.313-110.335 1.587 4.408 6.118 10.124 8.654 9.966z"/><path d="m145.658 278.457c2.036 6.154-6.463 9.983-9.732 4.386-22.141-37.906-22.594-103.451 5.745-120.086 10.459-6.136 25.209-7.045 35.351 2.985 3.206 3.171 1.26 8.565-3.218 9.096-38.816 4.603-40.193 67.21-28.146 103.619z"/></g><path d="m325.06 341.29c-.21 3.28-.54 6.79-1.06 10.48-81.58.174-89.561 1.816-118.62-10.83-3.92-1.71-1.58-7.58 2.45-6.13 22.14 8.02 33.95 6.61 117.23 6.48z" fill="#b38571"/><path d="m379.906 51h-248.906c-13.255 0-24 10.745-24 24v405h-11c-13.255 0-24-10.745-24-24v-416c0-13.255 10.745-24 24-24h284c23.777 0 22.739 35-.094 35z" fill="#f1fafc"/><path d="m424 400v56c0 13.25-10.75 24-24 24h-304c-13.25 0-24-10.75-24-24v-56z" fill="#ffdfba"/><path d="m107 400v80h-11c-13.25 0-24-10.75-24-24v-56z" fill="#ffebd2"/><path d="m400 0h-304c-22.056 0-40 17.944-40 40v416c0 22.056 17.944 40 40 40h304c22.056 0 40-17.944 40-40v-416c0-22.056-17.944-40-40-40zm-304 32h304c4.411 0 8 3.589 8 8v344h-320v-344c0-4.411 3.589-8 8-8zm304 432h-304c-4.411 0-8-3.589-8-8v-40h320v40c0 4.411-3.589 8-8 8zm-188.178-103.195c25.06 8.687 33.597 7.09 141.935 7.09 8.837 0 16-7.163 16-16s-7.163-16-16-16h-12.625c.188-19.01-.783-33.437-9.929-47.931 2.106-5.747 3.815-11.614 5.091-17.563l13.352 1.463 2.112 9.712c1.629 7.489 8.255 12.604 15.619 12.604 10.254 0 17.81-9.466 15.65-19.402-4.798-22.069-4.584-24.16-8.349-28.302-1.078-1.187 2.427 1.907-50.86-43.9l-1.277-2.618c20.25-5.093 56.026-18.726 66.897-52.72 1.426-4.457 4.079-12.752 2.207-23.064-5.106-28.132-40.008-48.6-74.488-54.629-5.707-12.687-18.456-21.545-33.244-21.545-20.147 0-36.779 16.517-36.423 37.074-22.77 20.299-42.057 44.144-56.994 71.787-15.316-17.617-39.421-18.2-57.044-7.856-34.862 20.458-34.269 81.223-22.448 117.554 20.161 61.958 82.265 87.8 100.818 94.246zm72.091-280.805c2.449 0 4.442 1.993 4.442 4.442 0 2.083-2.049 4.138-1.538 9.472-3.352-6.151-7.347-5.273-7.347-9.472.001-2.449 1.994-4.442 4.443-4.442zm-20.912 34.269c12.407 8.715 26.955-1.203 25.7-14.209 5.558 10.21 19.978 11.295 26.938 1.797 23.152 5.094 42.734 18.185 44.521 28.032.413 2.278-.236 4.587-1.2 7.6-6.382 19.954-34.631 29.914-50.85 32.887l-1.299-2.663c-3.874-7.942-13.452-11.238-21.396-7.364-7.941 3.874-11.239 13.453-7.364 21.396 20.058 41.113 19.031 40.045 22.404 42.945l12.788 10.993-12.243-1.342-30.835-27.729c-6.57-5.908-16.688-5.373-22.595 1.199-5.909 6.57-5.372 16.687 1.199 22.596l32.602 29.316c-16.395-.484-32.441 5.725-44.545 17.827-6.249 6.248-6.249 16.379 0 22.627 6.249 6.249 16.378 6.248 22.627 0 12.274-12.272 30.027-10.165 40.255-.547.807 1.176 1.774 2.25 2.892 3.187 5.86 7.551 6.724 15.737 6.529 33.077-.419 0-45.665-.005-46.081.01-39.585 1.38-57.053-12.847-62.731-19.029-37.522-40.861 13.628-136.337 19.584-147.089 11.316-20.43 25.78-39.047 43.1-55.517zm-113.352 62.335c3.632-2.131 9.378-3.292 13.335-1.392 4.951 2.38 9.301 10.954 8.541 22.979-10.035 26.131-18.099 56.774-16.539 84.85-28.124-38.779-21.915-96.709-5.337-106.437z" fill="#4c3546"/></svg>