<?xml version="1.0" encoding="iso-8859-1"?>
<!-- Generator: Adobe Illustrator 19.0.0, SVG Export Plug-In . SVG Version: 6.00 Build 0)  -->
<svg version="1.1" id="Layer_1" xmlns="http://www.w3.org/2000/svg" xmlns:xlink="http://www.w3.org/1999/xlink" x="0px" y="0px"
	 viewBox="0 0 512 512" style="enable-background:new 0 0 512 512;" xml:space="preserve">
<g>
	<g>
		<path d="M256,0C114.833,0,0,114.844,0,256s114.833,256,256,256s256-114.844,256-256S397.167,0,256,0z M464.762,149.333H219.033
			l72.202-125.061C367.042,35.766,430.974,83.479,464.762,149.333z M305.283,170.667l49.267,85.335l-49.266,85.332h-98.566
			l-49.267-85.335l49.266-85.332H305.283z M256,21.333c4.039,0,7.975,0.402,11.965,0.605L145.142,234.68L72.918,109.581
			C115.958,55.871,181.978,21.333,256,21.333z M21.333,256c0-46.997,14.025-90.719,37.911-127.464L182.1,341.333H37.632
			C27.242,314.846,21.333,286.126,21.333,256z M47.238,362.667h245.729l-72.202,125.061
			C144.958,476.234,81.026,428.521,47.238,362.667z M256,490.667c-4.039,0-7.975-0.402-11.965-0.605L366.858,277.32l72.224,125.099
			C396.042,456.129,330.022,490.667,256,490.667z M329.9,170.667h144.469c10.389,26.487,16.298,55.207,16.298,85.333
			c0,46.997-14.025,90.719-37.911,127.464L329.9,170.667z"/>
	</g>
</g>
<g>
</g>
<g>
</g>
<g>
</g>
<g>
</g>
<g>
</g>
<g>
</g>
<g>
</g>
<g>
</g>
<g>
</g>
<g>
</g>
<g>
</g>
<g>
</g>
<g>
</g>
<g>
</g>
<g>
</g>
</svg>
