<?xml version="1.0" encoding="iso-8859-1"?>
<!-- Generator: Adobe Illustrator 19.0.0, SVG Export Plug-In . SVG Version: 6.00 Build 0)  -->
<svg xmlns="http://www.w3.org/2000/svg" xmlns:xlink="http://www.w3.org/1999/xlink" version="1.1" id="Layer_1" x="0px" y="0px" viewBox="0 0 512 512" style="enable-background:new 0 0 512 512;" xml:space="preserve" width="512" height="512">
<g>
	<rect x="10" y="176" style="fill:#FF645F;" width="166" height="160"/>
	<rect x="326" y="10" style="fill:#FCBE5B;" width="176" height="160"/>
	<circle style="fill:#FFD0B0;" cx="236" cy="90" r="20"/>
	<rect x="326" y="342" style="fill:#62E7F4;" width="176" height="160"/>
	<circle style="fill:#FFD0B0;" cx="236" cy="422" r="20"/>
	<rect x="326" y="216" style="fill:#F0F0F0;" width="176" height="80"/>
	<circle style="fill:#FFD0B0;" cx="236" cy="256" r="20"/>
	<g>
		<path d="M367,60c5.51,0,10-4.49,10-10c0-5.51-4.49-10-10-10s-10,4.49-10,10C357,55.51,361.49,60,367,60z"/>
		<path d="M407,60h54c5.51,0,10-4.49,10-10c0-5.51-4.49-10-10-10h-54c-5.51,0-10,4.49-10,10C397,55.51,401.49,60,407,60z"/>
		<path d="M135,226c5.51,0,10-4.49,10-10c0-5.51-4.49-10-10-10s-10,4.49-10,10C125,221.51,129.49,226,135,226z"/>
		<path d="M50,226h45c5.51,0,10-4.49,10-10c0-5.51-4.49-10-10-10H50c-5.51,0-10,4.49-10,10C40,221.51,44.49,226,50,226z"/>
		<path d="M50,266h85c5.522,0,10-4.477,10-10s-4.478-10-10-10H50c-5.522,0-10,4.477-10,10S44.478,266,50,266z"/>
		<path d="M50,306h85c5.522,0,10-4.477,10-10s-4.478-10-10-10H50c-5.522,0-10,4.477-10,10S44.478,306,50,306z"/>
		<path d="M502,0H326c-5.522,0-10,4.477-10,10v30h-30c-5.522,0-10,4.477-10,10v30h-11.72c-3.017-8.507-9.775-15.246-18.28-18.265V10    c0-5.523-4.478-10-10-10s-10,4.477-10,10v51.72c-11.639,4.128-20,15.243-20,28.28s8.361,24.152,20,28.28v109.455    c-8.504,3.02-15.263,9.758-18.28,18.265H186v-70c0-5.523-4.478-10-10-10H10c-5.522,0-10,4.477-10,10v160c0,5.523,4.478,10,10,10    h166c5.522,0,10-4.477,10-10v-70h21.72c3.017,8.507,9.775,15.246,18.28,18.265V393.72c-11.639,4.128-20,15.243-20,28.28    s8.361,24.152,20,28.28V502c0,5.523,4.478,10,10,10s10-4.477,10-10v-51.735c8.504-3.02,15.263-9.758,18.28-18.265H316v70    c0,5.523,4.478,10,10,10h176c5.522,0,10-4.477,10-10V342c0-5.523-4.478-10-10-10H326c-5.522,0-10,4.477-10,10v70h-51.72    c-3.017-8.507-9.775-15.246-18.28-18.265V284.28c11.639-4.128,20-15.243,20-28.28s-8.361-24.152-20-28.28V118.265    c8.504-3.02,15.263-9.758,18.28-18.265H286c5.522,0,10-4.477,10-10V60h20v110c0,5.523,4.478,10,10,10h176c5.522,0,10-4.477,10-10    V10C512,4.477,507.522,0,502,0z M166,326H20V186h146V326z M336,352h156v140H336V352z M236,432c-5.514,0-10-4.486-10-10    s4.486-10,10-10s10,4.486,10,10S241.514,432,236,432z M236,266c-5.514,0-10-4.486-10-10s4.486-10,10-10s10,4.486,10,10    S241.514,266,236,266z M236,100c-5.514,0-10-4.486-10-10s4.486-10,10-10s10,4.486,10,10S241.514,100,236,100z M492,160H336V20h156    V160z"/>
		<path d="M366,100h95c5.522,0,10-4.477,10-10s-4.478-10-10-10h-95c-5.522,0-10,4.477-10,10S360.478,100,366,100z"/>
		<path d="M461,120h-25c-5.522,0-10,4.477-10,10s4.478,10,10,10h25c5.522,0,10-4.477,10-10S466.522,120,461,120z"/>
		<path d="M366,140h30c5.522,0,10-4.477,10-10s-4.478-10-10-10h-30c-5.522,0-10,4.477-10,10S360.478,140,366,140z"/>
		<path d="M460,392c5.51,0,10-4.49,10-10c0-5.51-4.49-10-10-10c-5.521,0-10,4.49-10,10C450,387.51,454.479,392,460,392z"/>
		<path d="M366,392h54c5.51,0,10-4.49,10-10c0-5.51-4.49-10-10-10h-54c-5.51,0-10,4.49-10,10C356,387.51,360.49,392,366,392z"/>
		<path d="M366,432h30c5.522,0,10-4.477,10-10s-4.478-10-10-10h-30c-5.522,0-10,4.477-10,10S360.478,432,366,432z"/>
		<path d="M461,412h-25c-5.522,0-10,4.477-10,10s4.478,10,10,10h25c5.522,0,10-4.477,10-10S466.522,412,461,412z"/>
		<path d="M461,452h-95c-5.522,0-10,4.477-10,10s4.478,10,10,10h95c5.522,0,10-4.477,10-10S466.522,452,461,452z"/>
		<path d="M502,206H326c-5.522,0-10,4.477-10,10v80c0,5.523,4.478,10,10,10h176c5.522,0,10-4.477,10-10v-80    C512,210.477,507.522,206,502,206z M492,286H336v-60h156V286z"/>
		<path d="M366,266h95c5.522,0,10-4.477,10-10s-4.478-10-10-10h-95c-5.522,0-10,4.477-10,10S360.478,266,366,266z"/>
	</g>
</g>















</svg>
