<svg height="512pt" viewBox="0 0 512 512.001" width="512pt" xmlns="http://www.w3.org/2000/svg"><path d="m356.082031 344.539062v53.488282c0 11.082031 1.652344 21.871094 4.761719 32.113281h-351.0625v-420.132813h419.132812v318.292969zm0 0" fill="#e1f4fd"/><path d="m84.71875 311.363281c-10.753906 0-19.46875-8.71875-19.46875-19.472656v-211.894531c0-10.753906 8.714844-19.472656 19.46875-19.472656h270.085938c10.753906 0 19.472656 8.71875 19.472656 19.472656v211.894531c0 10.753906-8.71875 19.472656-19.472656 19.472656zm0 0" fill="#57c7ff"/><path d="m354.253906 311.359375c11.058594 0 20.027344-8.960937 20.027344-20.019531v-51.242188l-64.609375-55.308594-49.269531-42.191406c-9.910156-8.480468-24.46875-8.667968-34.589844-.429687l-52.339844 42.589843-.011718.019532-108.21875 88.0625v18.5c0 11.058594 8.96875 20.019531 20.03125 20.019531zm0 0" fill="#787878"/><path d="m164.902344 123.402344c0 13.761718-11.15625 24.917968-24.917969 24.917968-13.765625 0-24.921875-11.15625-24.921875-24.917968 0-13.765625 11.15625-24.921875 24.921875-24.921875 13.761719 0 24.917969 11.15625 24.917969 24.921875zm0 0" fill="#fcdd6d"/><path d="m309.671875 184.789062h-.378906c-4.109375 0-8.210938 1.558594-11.332031 4.691407-3.128907 3.128906-7.226563 4.6875-11.328126 4.6875-4.101562 0-8.199218-1.558594-11.332031-4.6875-3.128906-3.132813-7.226562-4.691407-11.339843-4.691407-4.097657 0-8.199219 1.558594-11.328126 4.691407-3.128906 3.128906-7.230468 4.6875-11.332031 4.6875-4.097656 0-8.199219-1.558594-11.328125-4.6875-3.128906-3.132813-7.230468-4.691407-11.332031-4.691407-4.097656 0-8.199219 1.558594-11.328125 4.691407-3.128906 3.128906-7.230469 4.6875-11.328125 4.6875-4.113281 0-8.210937-1.558594-11.34375-4.6875-3.089844-3.101563-7.128906-4.660157-11.179687-4.703125l.011718-.019532 52.339844-42.589843c10.121094-8.238281 24.679688-8.050781 34.589844.429687zm0 0" fill="#e1f4fd"/><path d="m428.914062 328.300781-72.832031 16.238281v53.492188c0 46.523438 29.105469 88.078125 72.832031 103.976562 43.722657-15.898437 72.828126-57.453124 72.828126-103.980468v-53.488282zm0 0" fill="#fcdd6d"/><path d="m428.914062 463.53125c-23.054687-13.34375-37.832031-38.269531-37.832031-65.5v-25.4375l37.832031-8.433594 37.828126 8.433594v25.433594c0 27.234375-14.773438 52.160156-37.828126 65.503906zm0 0" fill="#fc6c49"/><path d="m384.496094 291.882812v-.398437c0-.050781.003906-.101563.003906-.15625v-51.238281c0-.023438-.003906-.046875-.003906-.070313v-160.03125c0-16.253906-13.21875-29.472656-29.472656-29.472656h-270.085938c-16.25 0-29.472656 13.21875-29.472656 29.472656v192.738281c0 .035157-.003906.066407-.003906.101563v18.5c0 .078125.003906.15625.003906.230469v.324218c0 16.25 13.222656 29.472657 29.472656 29.472657.089844 0 .175781-.011719.261719-.011719.097656 0 .195312.003906.292969.003906 5.519531 0 10-4.476562 10-10 0-5.519531-4.480469-10-10-10-5.492188 0-9.960938-4.433594-10.023438-9.902344v-13.867187l100.894531-82.097656c.519531.277343 1 .632812 1.425781 1.058593 4.914063 4.914063 11.453126 7.621094 18.414063 7.621094 6.953125 0 13.484375-2.707031 18.398437-7.621094 1.136719-1.132812 2.648438-1.757812 4.261719-1.757812 1.609375 0 3.121094.625 4.257813 1.757812 4.914062 4.914063 11.449218 7.621094 18.402344 7.621094 6.949218 0 13.484374-2.707031 18.398437-7.621094 1.136719-1.132812 2.648437-1.757812 4.257813-1.757812 1.617187 0 3.136718.625 4.269531 1.757812 4.914062 4.914063 11.449219 7.621094 18.402343 7.621094 6.953126 0 13.488282-2.707031 18.410157-7.632812.484375-.480469 1.035156-.863282 1.636719-1.152344l57.597656 49.3125v46.71875c-.042969 5.488281-4.519532 9.941406-10.023438 9.941406-.039062 0-.078125.003906-.117187.007813h-189.730469c-5.523438 0-10 4.476562-10 10 0 5.519531 4.476562 10 10 10h190.398438c16.253906 0 29.472656-13.21875 29.472656-29.472657zm-93.097656-109.769531c-.097657.09375-.191407.1875-.289063.285157-1.136719 1.136718-2.648437 1.761718-4.257813 1.761718-1.613281 0-3.125-.625-4.261718-1.761718-4.910156-4.914063-11.449219-7.617188-18.410156-7.617188-6.953126 0-13.488282 2.703125-18.398438 7.617188-1.136719 1.136718-2.648438 1.761718-4.261719 1.761718-1.609375 0-3.121093-.625-4.257812-1.761718-4.914063-4.914063-11.449219-7.617188-18.402344-7.617188s-13.488281 2.703125-18.398437 7.617188c-1.136719 1.136718-2.648438 1.761718-4.261719 1.761718-1.515625 0-2.941407-.550781-4.039063-1.546875l40.183594-32.699219c6.371094-5.1875 15.527344-5.070312 21.773438.273438zm-24.277344-47.121093c-8.613282-7.371094-19.769532-10.164063-30.320313-8.355469-6.101562 1.046875-12 3.628906-17.082031 7.765625l-52.339844 42.589844c-.105468.089843-.214844.179687-.320312.273437l-91.589844 74.53125v-171.808594c0-5.222656 4.246094-9.472656 9.472656-9.472656h270.085938c5.222656 0 9.46875 4.25 9.46875 9.472656v138.371094zm0 0"/><path d="m140.199219 88.472656c-19.253907 0-34.917969 15.667969-34.917969 34.921875 0 19.253907 15.664062 34.917969 34.917969 34.917969 19.257812 0 34.921875-15.664062 34.921875-34.917969 0-19.253906-15.664063-34.921875-34.921875-34.921875zm0 49.839844c-8.226563 0-14.917969-6.691406-14.917969-14.917969 0-8.230469 6.691406-14.921875 14.917969-14.921875 8.226562 0 14.921875 6.691406 14.921875 14.921875 0 8.226563-6.695313 14.917969-14.921875 14.917969zm0 0"/><path d="m504.136719 334.769531-65.007813-14.492187v-310.277344c0-5.523438-4.476562-10-10-10h-419.128906c-5.523438 0-10 4.476562-10 10v420.128906c0 5.523438 4.476562 10 10 10h343.957031c12.164063 32.457032 38.019531 59.003906 71.757813 71.269532 1.105468.402343 2.257812.601562 3.417968.601562 1.15625 0 2.3125-.199219 3.414063-.601562 47.5-17.269532 79.414063-62.835938 79.414063-113.378907v-53.488281c0-4.6875-3.25-8.742188-7.824219-9.761719zm-155.796875 85.359375h-328.339844v-400.128906h399.128906v300.273438l-65.003906 14.496093c-4.574219 1.019531-7.824219 5.074219-7.824219 9.761719v53.488281c0 3.195313.132813 6.390625.386719 9.574219.332031 4.210938.878906 8.394531 1.652344 12.535156zm143.621094-22.109375c0 40.941407-25.101563 77.964844-62.832032 93.269531-36.515625-14.8125-61.203125-49.972656-62.75-89.335937 0-.039063-.003906-.074219-.003906-.109375-.050781-1.269531-.074219-2.542969-.074219-3.820312v-45.476563l62.828125-14.007813 62.832032 14.007813zm0 0"/><path d="m426.957031 354.390625-37.832031 8.433594c-4.570312 1.023437-7.824219 5.078125-7.824219 9.761719v25.4375c0 30.453124 16.410157 58.867187 42.820313 74.15625 1.550781.894531 3.28125 1.34375 5.011718 1.34375 1.730469 0 3.457032-.445313 5.007813-1.34375 26.414063-15.289063 42.820313-43.707032 42.820313-74.15625v-25.4375c0-4.683594-3.25-8.738282-7.824219-9.761719l-37.828125-8.433594c-1.433594-.316406-2.921875-.316406-4.351563 0zm30.003907 26.210937v17.417969c0 21.351563-10.53125 41.398438-27.832032 53.636719-17.296875-12.238281-27.828125-32.285156-27.828125-53.632812v-17.421876l27.828125-6.203124zm0 0"/><path d="m134.902344 307.527344c-1.617188-3.871094-5.570313-6.386719-9.769532-6.160156-4.160156.226562-7.808593 3.101562-9.023437 7.082031-1.226563 4.03125.289063 8.589843 3.738281 11.035156 3.296875 2.332031 7.757813 2.46875 11.175782.3125 4.054687-2.554687 5.714843-7.847656 3.878906-12.269531zm0 0"/></svg>