<svg height="512pt" viewBox="0 -24 512 512" width="512pt" xmlns="http://www.w3.org/2000/svg"><path d="m502 95.621094v-49.890625c0-19.734375-15.996094-35.730469-35.730469-35.730469h-420.539062c-19.734375 0-35.730469 15.996094-35.730469 35.730469v49.890625zm0 0" fill="#9593e6"/><path d="m502 294.085938v124.109374c0 19.734376-15.996094 35.730469-35.730469 35.730469h-420.539062c-19.734375 0-35.730469-15.996093-35.730469-35.730469v-322.574218h492v108.015625" fill="#f9f9f9"/><path d="m448.34375 347.582031-39.640625-39.640625 23.503906-23.503906-100.769531-17.390625 17.390625 100.769531 23.503906-23.503906 39.640625 39.640625zm0 0" fill="#9bc6ff"/><path d="m290.726562 205.453125h-187.671874l18.875 112.496094h154.082031zm0 0" fill="#f8a2aa"/><path d="m411.972656 393.953125c-2.652344 0-5.195312-1.050781-7.070312-2.925781l-32.570313-32.570313-16.429687 16.429688c-2.640625 2.640625-6.535156 3.589843-10.097656 2.460937-3.558594-1.128906-6.191407-4.148437-6.828126-7.832031l-17.390624-100.765625c-.554688-3.203125.484374-6.476562 2.78125-8.773438 2.296874-2.296874 5.566406-3.335937 8.773437-2.78125l100.765625 17.390626c3.683594.636718 6.703125 3.269531 7.832031 6.828124 1.128907 3.5625.179688 7.457032-2.460937 10.097657l-16.429688 16.429687 32.566406 32.570313c3.90625 3.90625 3.90625 10.238281 0 14.140625l-36.371093 36.375c-1.875 1.875-4.417969 2.925781-7.070313 2.925781zm-39.640625-59.640625c2.652344 0 5.195313 1.054688 7.070313 2.929688l32.570312 32.570312 22.230469-22.230469-32.570313-32.566406c-3.90625-3.90625-3.90625-10.238281 0-14.144531l9.855469-9.859375-67.785156-11.699219 11.699219 67.789062 9.855468-9.859374c1.878907-1.875 4.421876-2.929688 7.074219-2.929688zm0 0"/><path d="m502 258.683594c-4.175781 0-7.988281-2.707032-9.402344-6.625-1.421875-3.929688-.175781-8.460938 3.058594-11.113282 3.152344-2.585937 7.660156-2.957031 11.214844-.992187 3.753906 2.074219 5.761718 6.484375 4.929687 10.679687-.914062 4.609376-5.097656 8.050782-9.800781 8.050782zm0 0"/><path d="m285.929688 319.246094 14.714843-112.492188c.371094-2.855468-.503906-5.730468-2.402343-7.894531-1.894532-2.164063-4.636719-3.40625-7.515626-3.40625h-179.207031l-6.402343-38.148437c-.808594-4.820313-4.976563-8.347657-9.863282-8.347657h-45.324218c-5.523438 0-10 4.476563-10 10 0 5.523438 4.476562 10 10 10h36.863281l32.601562 194.3125c.808594 4.816407 4.976563 8.347657 9.859375 8.347657h16.710938v12.335937c0 5.523437 4.480468 10 10 10 5.523437 0 10-4.476563 10-10v-12.335937h61.453125v12.335937c0 5.523437 4.480469 10 10 10 5.523437 0 10-4.476563 10-10v-12.335937h28.597656c5.519531 0 10-4.476563 10-10 0-5.523438-4.480469-10-10-10h-138.296875l-3.972656-23.667969h142.269531c5.019531 0 9.261719-3.722657 9.914063-8.703125zm-155.539063-11.296875-15.519531-92.496094h164.464844l-12.101563 92.496094zm0 0"/><path d="m466.269531 0h-420.539062c-25.214844 0-45.730469 20.515625-45.730469 45.730469v372.464843c0 25.214844 20.515625 45.730469 45.730469 45.730469h420.539062c25.214844 0 45.730469-20.515625 45.730469-45.730469v-124.109374c0-5.523438-4.476562-10-10-10s-10 4.476562-10 10v124.109374c0 14.1875-11.542969 25.730469-25.730469 25.730469h-420.539062c-14.1875 0-25.730469-11.542969-25.730469-25.730469v-312.574218h472v98.015625c0 5.523437 4.476562 10 10 10s10-4.476563 10-10v-157.90625c0-25.214844-20.515625-45.730469-45.730469-45.730469zm-446.269531 85.621094v-39.890625c0-14.1875 11.542969-25.730469 25.730469-25.730469h420.539062c14.1875 0 25.730469 11.542969 25.730469 25.730469v39.890625zm0 0"/><path d="m255.480469 62.929688h-72.566407c-5.519531 0-10-4.480469-10-10 0-5.523438 4.480469-10 10-10h72.566407c5.523437 0 10 4.476562 10 10-.003907 5.519531-4.480469 10-10 10zm0 0"/><path d="m97.808594 62.921875c-4.125 0-7.890625-2.617187-9.347656-6.472656-1.484376-3.929688-.285157-8.535157 2.960937-11.214844 3.097656-2.558594 7.558594-3.019531 11.101563-1.125 3.738281 2.003906 5.84375 6.257813 5.15625 10.449219-.785157 4.769531-5.042969 8.363281-9.871094 8.363281zm0 0"/><path d="m134.71875 62.921875c-4.195312 0-7.976562-2.691406-9.40625-6.625-1.398438-3.863281-.195312-8.34375 2.9375-10.996094 3.285156-2.777343 8.09375-3.121093 11.746094-.863281 3.507812 2.167969 5.320312 6.410156 4.523437 10.445312-.910156 4.621094-5.09375 8.039063-9.800781 8.039063zm0 0"/><path d="m60.910156 62.921875c-4.238281 0-8.105468-2.765625-9.46875-6.777344-1.367187-4.007812.019532-8.582031 3.382813-11.152343 3.230469-2.46875 7.730469-2.707032 11.222656-.636719 3.582031 2.125 5.488281 6.449219 4.664063 10.527343-.933594 4.621094-5.078126 8.039063-9.800782 8.039063zm0 0"/></svg>